HIERARCHY
ROOT Hips
{
	OFFSET 0.000000 0.000000 0.000000
	CHANNELS 6 Xposition Yposition Zposition Zrotation Yrotation Xrotation 
	JOINT LHipJoint
	{
		OFFSET 0.000000 0.000000 0.000000
		CHANNELS 3 Zrotation Yrotation Xrotation
		JOINT LeftUpLeg
		{
			OFFSET 1.363060 -1.794630 0.839290
			CHANNELS 3 Zrotation Yrotation Xrotation
			JOINT LeftLeg
			{
				OFFSET 2.448110 -6.726130 0.000000
				CHANNELS 3 Zrotation Yrotation Xrotation
				JOINT LeftFoot
				{
					OFFSET 2.562200 -7.039590 0.000000
					CHANNELS 3 Zrotation Yrotation Xrotation
					JOINT LeftToeBase
					{
						OFFSET 0.157640 -0.433110 2.322550
						CHANNELS 3 Zrotation Yrotation Xrotation
						End Site
						{
							OFFSET 0.000000 0.000000 0.000000
						}
					}
				}
			}
		}
	}
	JOINT RHipJoint
	{
		OFFSET 0.000000 0.000000 0.000000
		CHANNELS 3 Zrotation Yrotation Xrotation
		JOINT RightUpLeg
		{
			OFFSET -1.305520 -1.794630 0.839290
			CHANNELS 3 Zrotation Yrotation Xrotation
			JOINT RightLeg
			{
				OFFSET -2.542530 -6.985550 0.000000
				CHANNELS 3 Zrotation Yrotation Xrotation
				JOINT RightFoot
				{
					OFFSET -2.568260 -7.056230 0.000000
					CHANNELS 3 Zrotation Yrotation Xrotation
					JOINT RightToeBase
					{
						OFFSET -0.164730 -0.452590 2.363150
						CHANNELS 3 Zrotation Yrotation Xrotation
						End Site
						{
							OFFSET 0.000000 0.000000 0.000000
						}
					}
				}
			}
		}
	}
}
MOTION
Frames: 14
Frame Time: 0.008333
3.037288 16.839722 5.989689 2.043581 5.243121 15.187366 -11.995766 4.443914 -1.262235 -2.605808 17.455952 -5.583781 -0.092199 1.729702 33.640097 1.767058 5.184189 28.389784 2.083200 -0.000000 -80.106400 7.105590 -1.419692 4.519809 19.269906 8.676591 -33.887536 3.283380 0.689767 13.831000 -2.714493 -7.732363 -14.120754 -179.621200 -0.000000 -11.911900
3.083693 16.851761 6.150386 1.765352 4.883257 14.949579 -12.113097 4.309974 -1.278471 -2.262762 17.460917 -6.634064 0.006735 1.805421 36.246491 1.933848 6.023143 29.221463 2.551900 0.000000 -74.366899 7.055970 -1.509738 4.351660 19.739405 8.238139 -33.258373 3.348647 0.584778 14.316078 -2.544546 -7.256532 -13.561957 -179.722899 -0.000001 -10.786999
3.125306 16.864714 6.307529 1.520193 4.479320 14.726365 -12.193092 4.165792 -1.325759 -2.018579 17.511595 -7.799112 0.086712 1.897537 38.928023 2.091060 7.280712 29.385760 3.241100 0.000000 -68.035400 7.024673 -1.584418 4.193105 20.140025 7.826689 -32.639148 3.405829 0.487387 14.826282 -2.389043 -6.743907 -13.239855 -179.772701 -0.000000 -9.995100
3.162459 16.878713 6.461418 1.305264 4.037021 14.522574 -12.239269 4.012682 -1.395649 -1.874470 17.566920 -9.062534 0.157755 2.006306 41.613411 2.245482 8.944779 28.938752 4.122600 0.000000 -62.368200 7.007531 -1.641373 4.050743 20.464068 7.479097 -32.001289 3.452736 0.404955 15.317719 -2.257329 -6.239208 -13.151276 -179.777500 -0.000001 -9.624300
3.195172 16.893839 6.612715 1.127820 3.568703 14.350866 -12.251201 3.855419 -1.478177 -1.843502 17.590220 -10.433643 0.225596 2.132790 44.279795 2.394768 10.887426 27.862705 5.079700 0.000000 -57.128300 7.006642 -1.678936 3.932318 20.695921 7.212894 -31.344141 3.487643 0.342464 15.757327 -2.154359 -5.771809 -13.281352 -179.745900 -0.000000 -9.695600
3.223963 16.910317 6.762000 0.986224 3.087707 14.218349 -12.233062 3.695332 -1.560106 -1.925091 17.534379 -11.904846 0.294518 2.272196 46.873563 2.543247 12.998684 26.231392 6.005900 0.000000 -52.768400 7.019263 -1.697018 3.841036 20.836859 7.038102 -30.654449 3.511160 0.305485 16.097792 -2.083013 -5.371409 -13.591004 -179.688500 -0.000000 -10.177000
3.249415 16.928359 6.909913 0.878368 2.609879 14.129793 -12.189358 3.534263 -1.628885 -2.112813 17.359323 -13.467927 0.365405 2.419120 49.349496 2.691006 15.139044 24.103378 6.779500 -0.000000 -49.089000 7.043081 -1.696944 3.777061 20.893227 6.950304 -29.925510 3.524578 0.297376 16.298986 -2.042712 -5.056930 -14.027640 -179.614999 0.000000 -10.971200
3.272186 16.948205 7.056973 0.801442 2.150021 14.087280 -12.125030 3.372485 -1.670231 -2.395729 17.021658 -15.103184 0.436948 2.564582 51.646140 2.840667 17.203422 21.608482 7.323100 -0.000001 -46.328300 7.075649 -1.680715 3.737195 20.875292 6.935054 -29.153902 3.529496 0.319666 16.328721 -2.029946 -4.836320 -14.531913 -179.533400 -0.000000 -11.948000
3.292920 16.969871 7.203629 0.751937 1.721739 14.088904 -12.044837 3.211118 -1.675380 -2.752427 16.500607 -16.790692 0.505519 2.702300 53.721745 2.987465 19.072716 18.819343 7.563101 0.000000 -44.093100 7.115051 -1.651335 3.716141 20.795800 6.970554 -28.339259 3.527351 0.371438 16.169129 -2.038874 -4.707205 -15.044043 -179.450600 0.000000 -12.957600
3.312200 16.993353 7.350183 0.726044 1.334244 14.129852 -11.952785 3.050053 -1.636881 -3.157673 15.780792 -18.501319 0.566742 2.824900 55.528947 3.127607 20.670023 15.860745 7.484400 -0.000000 -42.423400 7.160057 -1.611660 3.706724 20.667231 7.032553 -27.482601 3.519380 0.450065 15.815120 -2.061992 -4.657738 -15.510451 -179.372600 -0.000000 -13.852200
3.330426 17.018444 7.496840 0.721318 0.993001 14.203192 -11.851848 2.889619 -1.551840 -3.583901 14.864351 -20.206624 0.615750 2.927433 57.035049 3.253103 21.928448 12.819607 7.095000 -0.000000 -40.831500 7.210168 -1.564785 3.702011 20.500163 7.098005 -26.587665 3.506497 0.551368 15.275628 -2.091442 -4.670003 -15.890099 -179.304500 -0.000000 -14.539500
3.347879 17.044857 7.643612 0.735275 0.696210 14.299033 -11.743627 2.728464 -1.419710 -4.003172 13.759491 -21.870392 0.649169 3.004296 58.201755 3.360548 22.841871 9.862911 6.478300 -0.000000 -39.708800 7.265921 -1.512597 3.693274 20.303342 7.146053 -25.654557 3.489556 0.670160 14.569877 -2.119048 -4.720176 -16.155321 -179.250900 0.000000 -14.956300
3.364695 17.072156 7.790432 0.765396 0.437926 14.408036 -11.628964 2.566303 -1.245323 -4.389910 12.496919 -23.469393 0.664518 3.054055 59.018118 3.443304 23.404559 7.080390 5.711300 0.000000 -38.835100 7.327765 -1.457327 3.675277 20.083740 7.164929 -24.687507 3.469383 0.800602 13.727460 -2.138156 -4.784432 -16.294927 -179.214901 -0.000000 -15.095599
3.380842 17.099761 7.937305 0.811394 0.208077 14.523012 -11.507358 2.403423 -1.035160 -4.728923 11.116957 -24.991329 0.660670 3.076768 59.486774 3.497373 23.637391 4.535530 4.876100 -0.000000 -37.931300 7.397062 -1.401221 3.645891 19.844075 7.148158 -23.696188 3.446644 0.936504 12.786472 -2.143398 -4.838101 -16.312449 -179.198201 -0.000000 -14.980300
